<?xml version="1.0" encoding="UTF-8" standalone="no"?>
<!-- Created with Inkscape (http://www.inkscape.org/) -->

<svg
   xmlns:dc="http://purl.org/dc/elements/1.1/"
   xmlns:cc="http://creativecommons.org/ns#"
   xmlns:rdf="http://www.w3.org/1999/02/22-rdf-syntax-ns#"
   xmlns:svg="http://www.w3.org/2000/svg"
   xmlns="http://www.w3.org/2000/svg"
   xmlns:sodipodi="http://sodipodi.sourceforge.net/DTD/sodipodi-0.dtd"
   xmlns:inkscape="http://www.inkscape.org/namespaces/inkscape"
   width="64"
   height="64"
   viewBox="0 0 16.933333 16.933334"
   version="1.1"
   id="svg8"
   inkscape:version="0.92.4 5da689c313, 2019-01-14"
   sodipodi:docname="piece_x.svg">
  <defs
     id="defs2">
    <inkscape:path-effect
       effect="bspline"
       id="path-effect5135"
       is_visible="true"
       weight="33.333333"
       steps="2"
       helper_size="0"
       apply_no_weight="true"
       apply_with_weight="true"
       only_selected="false" />
    <inkscape:path-effect
       effect="bspline"
       id="path-effect5131"
       is_visible="true"
       weight="33.333333"
       steps="2"
       helper_size="0"
       apply_no_weight="true"
       apply_with_weight="true"
       only_selected="false" />
  </defs>
  <sodipodi:namedview
     id="base"
     pagecolor="#ffffff"
     bordercolor="#666666"
     borderopacity="1.0"
     inkscape:pageopacity="0"
     inkscape:pageshadow="2"
     inkscape:zoom="6.628125"
     inkscape:cx="20.448783"
     inkscape:cy="34.990947"
     inkscape:document-units="mm"
     inkscape:current-layer="layer1"
     showgrid="false"
     units="px"
     inkscape:window-width="1366"
     inkscape:window-height="711"
     inkscape:window-x="0"
     inkscape:window-y="0"
     inkscape:window-maximized="1"
     inkscape:pagecheckerboard="true" />
  <metadata
     id="metadata5">
    <rdf:RDF>
      <cc:Work
         rdf:about="">
        <dc:format>image/svg+xml</dc:format>
        <dc:type
           rdf:resource="http://purl.org/dc/dcmitype/StillImage" />
        <dc:title></dc:title>
      </cc:Work>
    </rdf:RDF>
  </metadata>
  <g
     inkscape:label="Layer 1"
     inkscape:groupmode="layer"
     id="layer1"
     transform="translate(0,-280.06665)">
    <path
       sodipodi:nodetypes="csscccsssscccsssscccssssccccc"
       inkscape:connector-curvature="0"
       id="path5127"
       d="m 3.2447629,283.02926 -0.282153,0.28215 c -0.51604,0.51604 -0.51604,1.3469 0,1.86294 l 1.679484,1.67948 1.6794843,1.67949 -1.6794843,1.67948 -1.679484,1.67948 c -0.51604,0.51604 -0.51604,1.3469 0,1.86294 l 0.282153,0.28215 c 0.51604,0.51604 1.346896,0.51604 1.862936,0 l 1.6794833,-1.67948 1.679484,-1.67948 1.6794838,1.67948 1.679485,1.67948 c 0.516033,0.51604 1.346896,0.51604 1.862936,0 l 0.282153,-0.28215 c 0.51604,-0.51604 0.516032,-1.3469 0,-1.86294 l -1.679484,-1.67948 -1.679484,-1.67948 1.679484,-1.67949 1.679484,-1.67948 c 0.516032,-0.51603 0.51604,-1.3469 0,-1.86294 l -0.282153,-0.28215 c -0.51604,-0.51604 -1.346903,-0.51603 -1.862936,0 l -1.679485,1.67948 -1.6794838,1.67949 -1.679484,-1.67949 -1.6794833,-1.67948 c -0.57643,-0.48743 -1.368529,-0.47956 -1.862936,0 z"
       style="opacity:0.95999995;fill:#ffffff;fill-opacity:1;fill-rule:nonzero;stroke:#000000;stroke-width:0.86500001;stroke-linecap:round;stroke-linejoin:bevel;stroke-miterlimit:4;stroke-dasharray:none;stroke-dashoffset:0;stroke-opacity:1" />
  </g>
</svg>
